<svg xmlns="http://www.w3.org/2000/svg" viewBox="0 0 1200 800" width="1200" height="800" role="img">
  <defs>
    <linearGradient id="ba--wall" x1="0" y1="0" x2="0.3" y2="1">
      <stop offset="0" stop-color="#F6F1E9"/>
      <stop offset="1" stop-color="#EBE3D8"/>
    </linearGradient>
    <linearGradient id="ba--floor" x1="0" y1="0" x2="0" y2="1">
      <stop offset="0" stop-color="#DCCFC0"/>
      <stop offset="1" stop-color="#C6B7A6"/>
    </linearGradient>
    <linearGradient id="ba--sofa" x1="0" y1="0" x2="0.2" y2="1">
      <stop offset="0" stop-color="#FFFFFF" stop-opacity="0.9"/>
      <stop offset="0.45" stop-color="#EFE6DA"/>
      <stop offset="1" stop-color="#DDD0BF"/>
    </linearGradient>
    <linearGradient id="ba--teal" x1="0" y1="0" x2="1" y2="1">
      <stop offset="0" stop-color="#009FA3"/>
      <stop offset="1" stop-color="#007377"/>
    </linearGradient>
    <linearGradient id="ba--glass" x1="0" y1="0" x2="0.6" y2="1">
      <stop offset="0" stop-color="#DFF3F7"/>
      <stop offset="0.55" stop-color="#BFE4EC"/>
      <stop offset="1" stop-color="#9FD2DE"/>
    </linearGradient>
    <linearGradient id="ba--beam" x1="0" y1="0" x2="0.35" y2="1">
      <stop offset="0" stop-color="#FFF1CE" stop-opacity="0.85"/>
      <stop offset="1" stop-color="#FFF1CE" stop-opacity="0"/>
    </linearGradient>
    <radialGradient id="ba--glow" cx="0.5" cy="0.5" r="0.5">
      <stop offset="0" stop-color="#FFF1CE" stop-opacity="0.75"/>
      <stop offset="1" stop-color="#FFF1CE" stop-opacity="0"/>
    </radialGradient>
    <radialGradient id="ba--shadow" cx="0.5" cy="0.5" r="0.5">
      <stop offset="0" stop-color="#073B4C" stop-opacity="0.28"/>
      <stop offset="1" stop-color="#073B4C" stop-opacity="0"/>
    </radialGradient>
    <filter id="ba--soft" x="-25%" y="-25%" width="150%" height="150%">
      <feGaussianBlur stdDeviation="14"/>
    </filter>
    <filter id="ba--grime" x="-10%" y="-10%" width="120%" height="120%">
      <feTurbulence type="fractalNoise" baseFrequency="0.9" numOctaves="4" seed="7" result="noise"/>
      <feColorMatrix in="noise" type="matrix" result="mono"
        values="0 0 0 0 0.32  0 0 0 0 0.27  0 0 0 0 0.18  0 0 0 0.55 0"/>
      <feComposite in="mono" in2="SourceGraphic" operator="in"/>
    </filter>
  </defs>
  <rect width="1200" height="800" fill="url(#ba--wall)"/>
  <rect y="600" width="1200" height="200" fill="url(#ba--floor)"/>
  <rect y="586" width="1200" height="14" fill="#FFFFFF" opacity="0.75"/>
  <rect y="586" width="1200" height="3" fill="#073B4C" opacity="0.06"/>
  <ellipse cx="600" cy="600" rx="720" ry="128" fill="url(#ba--glow)" opacity="0.5"/>
  <g>
    <rect x="80" y="80" width="250" height="270" rx="14" fill="#FFFFFF" opacity="0.9"/>
    <rect x="90" y="90" width="230" height="250" rx="8" fill="url(#ba--glass)"/>
    <rect x="202" y="90" width="6" height="250" fill="#FFFFFF" opacity="0.85"/>
    <rect x="90" y="195" width="230" height="6" fill="#FFFFFF" opacity="0.85"/>
    <path d="M98 332 L216.5 100 L269.4 100 L112 332 Z"
      fill="#FFFFFF" opacity="0.35"/>
    <!-- distant skyline -->
    <g opacity="0.28" fill="#073B4C">
      <rect x="102" y="227.5" width="29.900000000000002" height="112.5" rx="3"/>
      <rect x="149.8" y="200" width="23" height="140" rx="3"/>
      <rect x="232.6" y="245" width="36.800000000000004" height="95" rx="3"/>
    </g>
    <path d="M90 340 L320 140 L527 690 L44 690 Z"
             fill="url(#ba--beam)" opacity="0.5"/>
  </g>
    
  <g>
    <rect x="420" y="210" width="700" height="114" rx="10" fill="#EFEAE2"/>
    <g stroke="#073B4C" stroke-width="1.5" opacity="0.12" fill="none">
      <path d="M651 210 v 114"/><path d="M882 210 v 114"/>
    </g>
    <rect x="420" y="419" width="700" height="30.400000000000002" rx="6" fill="#2E4A54"/>
    <rect x="420" y="449.4" width="700" height="140.6" rx="10" fill="#EFEAE2"/>
    <g stroke="#073B4C" stroke-width="1.5" opacity="0.12" fill="none">
      <path d="M700 449.4 v 140.6"/><path d="M924 449.4 v 140.6"/>
    </g>
    <g fill="#073B4C" opacity="0.35">
      <rect x="518" y="286" width="42" height="5" rx="2.5"/>
      <rect x="784" y="483.59999999999997" width="42" height="5" rx="2.5"/>
    </g>
    <path d="M532 419 v -60.800000000000004 q 0 -30.400000000000002 49.00000000000001 -30.400000000000002"
      stroke="#009FA3" stroke-width="6" fill="none" stroke-linecap="round"/>
    <rect x="924" y="362" width="98.00000000000001" height="57" rx="6" fill="#FFFFFF" opacity="0.8"/>
    
    
  </g>
    
  <g>
    <ellipse cx="360" cy="616" rx="27.200000000000003" ry="7.2" fill="url(#ba--shadow)"/>
    <ellipse cx="360" cy="533.2" rx="12" ry="36.8"
      fill="#1F6B4F" opacity="0.92"
      transform="rotate(-80 360 568.4)"/><ellipse cx="360" cy="533.2" rx="12" ry="36.8"
      fill="#2F8F6B" opacity="0.92"
      transform="rotate(-54 360 568.4)"/><ellipse cx="360" cy="533.2" rx="12" ry="36.8"
      fill="#1F6B4F" opacity="0.92"
      transform="rotate(-28 360 568.4)"/><ellipse cx="360" cy="533.2" rx="12" ry="36.8"
      fill="#2F8F6B" opacity="0.92"
      transform="rotate(-2 360 568.4)"/><ellipse cx="360" cy="533.2" rx="12" ry="36.8"
      fill="#1F6B4F" opacity="0.92"
      transform="rotate(24 360 568.4)"/><ellipse cx="360" cy="533.2" rx="12" ry="36.8"
      fill="#2F8F6B" opacity="0.92"
      transform="rotate(50 360 568.4)"/><ellipse cx="360" cy="533.2" rx="12" ry="36.8"
      fill="#1F6B4F" opacity="0.92"
      transform="rotate(76 360 568.4)"/>
    <path d="M339.2 573.2 h 41.6 l -5.6000000000000005 36.800000000000004 h -30.400000000000002 Z" fill="#EBE3D8"/>
    <path d="M339.2 573.2 h 41.6 l -2.4000000000000004 9.600000000000001 h -36.800000000000004 Z" fill="#C6B7A6" opacity="0.6"/>
  </g>
    <path d="M523.36 247.54 Q523.36 262.89 538.72 262.89 Q523.36 262.89 523.36 278.25 Q523.36 262.89 508.01 262.89 Q523.36 262.89 523.36 247.54 Z"
      fill="#F5C542" opacity="0.85"/><path d="M969.14 275.43 Q969.14 283.73 977.44 283.73 Q969.14 283.73 969.14 292.03 Q969.14 283.73 960.84 283.73 Q969.14 283.73 969.14 275.43 Z"
      fill="#F5C542" opacity="0.8"/><path d="M873.22 344.23 Q873.22 353.12 882.1 353.12 Q873.22 353.12 873.22 362 Q873.22 353.12 864.34 353.12 Q873.22 353.12 873.22 344.23 Z"
      fill="#F5C542" opacity="0.7"/><path d="M567.94 266.86 Q567.94 276.62 577.7 276.62 Q567.94 276.62 567.94 286.38 Q567.94 276.62 558.18 276.62 Q567.94 276.62 567.94 266.86 Z"
      fill="#F5C542" opacity="0.86"/><path d="M543.68 333.31 Q543.68 342.25 552.62 342.25 Q543.68 342.25 543.68 351.2 Q543.68 342.25 534.74 342.25 Q543.68 342.25 543.68 333.31 Z"
      fill="#F5C542" opacity="0.59"/><path d="M1008.53 156.82 Q1008.53 164.49 1016.19 164.49 Q1008.53 164.49 1008.53 172.16 Q1008.53 164.49 1000.86 164.49 Q1008.53 164.49 1008.53 156.82 Z"
      fill="#F5C542" opacity="0.87"/><path d="M689.18 383.5 Q689.18 396.55 702.23 396.55 Q689.18 396.55 689.18 409.61 Q689.18 396.55 676.13 396.55 Q689.18 396.55 689.18 383.5 Z"
      fill="#F5C542" opacity="0.88"/></svg>
