<svg xmlns="http://www.w3.org/2000/svg" viewBox="0 0 1200 800" width="1200" height="800" role="img">
  <defs>
    <linearGradient id="ba--wall" x1="0" y1="0" x2="0.3" y2="1">
      <stop offset="0" stop-color="#F6F1E9"/>
      <stop offset="1" stop-color="#EBE3D8"/>
    </linearGradient>
    <linearGradient id="ba--floor" x1="0" y1="0" x2="0" y2="1">
      <stop offset="0" stop-color="#DCCFC0"/>
      <stop offset="1" stop-color="#C6B7A6"/>
    </linearGradient>
    <linearGradient id="ba--sofa" x1="0" y1="0" x2="0.2" y2="1">
      <stop offset="0" stop-color="#FFFFFF" stop-opacity="0.9"/>
      <stop offset="0.45" stop-color="#EFE6DA"/>
      <stop offset="1" stop-color="#DDD0BF"/>
    </linearGradient>
    <linearGradient id="ba--teal" x1="0" y1="0" x2="1" y2="1">
      <stop offset="0" stop-color="#009FA3"/>
      <stop offset="1" stop-color="#007377"/>
    </linearGradient>
    <linearGradient id="ba--glass" x1="0" y1="0" x2="0.6" y2="1">
      <stop offset="0" stop-color="#DFF3F7"/>
      <stop offset="0.55" stop-color="#BFE4EC"/>
      <stop offset="1" stop-color="#9FD2DE"/>
    </linearGradient>
    <linearGradient id="ba--beam" x1="0" y1="0" x2="0.35" y2="1">
      <stop offset="0" stop-color="#FFF1CE" stop-opacity="0.85"/>
      <stop offset="1" stop-color="#FFF1CE" stop-opacity="0"/>
    </linearGradient>
    <radialGradient id="ba--glow" cx="0.5" cy="0.5" r="0.5">
      <stop offset="0" stop-color="#FFF1CE" stop-opacity="0.75"/>
      <stop offset="1" stop-color="#FFF1CE" stop-opacity="0"/>
    </radialGradient>
    <radialGradient id="ba--shadow" cx="0.5" cy="0.5" r="0.5">
      <stop offset="0" stop-color="#073B4C" stop-opacity="0.28"/>
      <stop offset="1" stop-color="#073B4C" stop-opacity="0"/>
    </radialGradient>
    <filter id="ba--soft" x="-25%" y="-25%" width="150%" height="150%">
      <feGaussianBlur stdDeviation="14"/>
    </filter>
    <filter id="ba--grime" x="-10%" y="-10%" width="120%" height="120%">
      <feTurbulence type="fractalNoise" baseFrequency="0.9" numOctaves="4" seed="7" result="noise"/>
      <feColorMatrix in="noise" type="matrix" result="mono"
        values="0 0 0 0 0.32  0 0 0 0 0.27  0 0 0 0 0.18  0 0 0 0.55 0"/>
      <feComposite in="mono" in2="SourceGraphic" operator="in"/>
    </filter>
  </defs>
  <rect width="1200" height="800" fill="#DCEFF3"/>
  <rect width="1200" height="272" fill="#CFE7EC"/>
  <rect y="240" width="1200" height="80" fill="#EBE3D8"/>
  <rect y="320" width="1200" height="368" fill="#3FA9C4"/>
  <rect y="320" width="1200" height="368" fill="url(#ba--teal)" opacity="0.5"/>
  
  <path d="M120 400 q 240 -8 480 0 t 480 0"
      stroke="#FFFFFF" stroke-width="2" fill="none" opacity="0.15"/><path d="M120 448 q 240 -8 480 0 t 480 0"
      stroke="#FFFFFF" stroke-width="2" fill="none" opacity="0.17"/><path d="M120 496 q 240 -8 480 0 t 480 0"
      stroke="#FFFFFF" stroke-width="2" fill="none" opacity="0.24"/><path d="M120 544 q 240 -8 480 0 t 480 0"
      stroke="#FFFFFF" stroke-width="2" fill="none" opacity="0.27"/><path d="M120 592 q 240 -8 480 0 t 480 0"
      stroke="#FFFFFF" stroke-width="2" fill="none" opacity="0.27"/><path d="M120 640 q 240 -8 480 0 t 480 0"
      stroke="#FFFFFF" stroke-width="2" fill="none" opacity="0.17"/><path d="M120 688 q 240 -8 480 0 t 480 0"
      stroke="#FFFFFF" stroke-width="2" fill="none" opacity="0.16"/>
  <rect y="688" width="1200" height="112.00000000000001" fill="#DCCFC0"/>
  <g opacity="0.9">
    <rect x="72" y="144" width="120" height="112.00000000000001" rx="4" fill="#2F8F6B"/>
    <rect x="120" y="224.00000000000003" width="24" height="48" fill="#8A6739"/>
  </g>
  <g fill="#FFFFFF" opacity="0.85">
    <rect x="744" y="160" width="360" height="88" rx="6"/>
    <rect x="792" y="248" width="60" height="40" rx="2"/>
  </g>
  <path d="M255.19 439.72 Q255.19 455.07 270.54 455.07 Q255.19 455.07 255.19 470.43 Q255.19 455.07 239.83 455.07 Q255.19 455.07 255.19 439.72 Z"
      fill="#FFFFFF" opacity="0.85"/><path d="M904.74 477.13 Q904.74 485.43 913.04 485.43 Q904.74 485.43 904.74 493.73 Q904.74 485.43 896.44 485.43 Q904.74 485.43 904.74 477.13 Z"
      fill="#FFFFFF" opacity="0.8"/><path d="M764.98 577.66 Q764.98 586.54 773.86 586.54 Q764.98 586.54 764.98 595.43 Q764.98 586.54 756.09 586.54 Q764.98 586.54 764.98 577.66 Z"
      fill="#FFFFFF" opacity="0.7"/><path d="M320.14 465.32 Q320.14 475.08 329.9 475.08 Q320.14 475.08 320.14 484.84 Q320.14 475.08 310.38 475.08 Q320.14 475.08 320.14 465.32 Z"
      fill="#FFFFFF" opacity="0.86"/><path d="M284.78 561.77 Q284.78 570.71 293.73 570.71 Q284.78 570.71 284.78 579.65 Q284.78 570.71 275.84 570.71 Q284.78 570.71 284.78 561.77 Z"
      fill="#FFFFFF" opacity="0.59"/></svg>
