<svg xmlns="http://www.w3.org/2000/svg" viewBox="0 0 1200 800" width="1200" height="800" role="img">
  <defs>
    <linearGradient id="ba--wall" x1="0" y1="0" x2="0.3" y2="1">
      <stop offset="0" stop-color="#F6F1E9"/>
      <stop offset="1" stop-color="#EBE3D8"/>
    </linearGradient>
    <linearGradient id="ba--floor" x1="0" y1="0" x2="0" y2="1">
      <stop offset="0" stop-color="#DCCFC0"/>
      <stop offset="1" stop-color="#C6B7A6"/>
    </linearGradient>
    <linearGradient id="ba--sofa" x1="0" y1="0" x2="0.2" y2="1">
      <stop offset="0" stop-color="#FFFFFF" stop-opacity="0.9"/>
      <stop offset="0.45" stop-color="#EFE6DA"/>
      <stop offset="1" stop-color="#DDD0BF"/>
    </linearGradient>
    <linearGradient id="ba--teal" x1="0" y1="0" x2="1" y2="1">
      <stop offset="0" stop-color="#009FA3"/>
      <stop offset="1" stop-color="#007377"/>
    </linearGradient>
    <linearGradient id="ba--glass" x1="0" y1="0" x2="0.6" y2="1">
      <stop offset="0" stop-color="#DFF3F7"/>
      <stop offset="0.55" stop-color="#BFE4EC"/>
      <stop offset="1" stop-color="#9FD2DE"/>
    </linearGradient>
    <linearGradient id="ba--beam" x1="0" y1="0" x2="0.35" y2="1">
      <stop offset="0" stop-color="#FFF1CE" stop-opacity="0.85"/>
      <stop offset="1" stop-color="#FFF1CE" stop-opacity="0"/>
    </linearGradient>
    <radialGradient id="ba--glow" cx="0.5" cy="0.5" r="0.5">
      <stop offset="0" stop-color="#FFF1CE" stop-opacity="0.75"/>
      <stop offset="1" stop-color="#FFF1CE" stop-opacity="0"/>
    </radialGradient>
    <radialGradient id="ba--shadow" cx="0.5" cy="0.5" r="0.5">
      <stop offset="0" stop-color="#073B4C" stop-opacity="0.28"/>
      <stop offset="1" stop-color="#073B4C" stop-opacity="0"/>
    </radialGradient>
    <filter id="ba--soft" x="-25%" y="-25%" width="150%" height="150%">
      <feGaussianBlur stdDeviation="14"/>
    </filter>
    <filter id="ba--grime" x="-10%" y="-10%" width="120%" height="120%">
      <feTurbulence type="fractalNoise" baseFrequency="0.9" numOctaves="4" seed="7" result="noise"/>
      <feColorMatrix in="noise" type="matrix" result="mono"
        values="0 0 0 0 0.32  0 0 0 0 0.27  0 0 0 0 0.18  0 0 0 0.55 0"/>
      <feComposite in="mono" in2="SourceGraphic" operator="in"/>
    </filter>
  </defs>
  <rect width="1200" height="800" fill="url(#ba--wall)"/>
  <rect y="560" width="1200" height="240" fill="url(#ba--floor)"/>
  <rect y="546" width="1200" height="14" fill="#FFFFFF" opacity="0.75"/>
  <rect y="546" width="1200" height="3" fill="#073B4C" opacity="0.06"/>
  <ellipse cx="600" cy="560" rx="720" ry="128" fill="url(#ba--glow)" opacity="0.5"/>
  <g>
    <rect x="850" y="80" width="280" height="310" rx="14" fill="#FFFFFF" opacity="0.9"/>
    <rect x="860" y="90" width="260" height="290" rx="8" fill="url(#ba--glass)"/>
    <rect x="987" y="90" width="6" height="290" fill="#FFFFFF" opacity="0.85"/>
    <rect x="860" y="211.8" width="260" height="6" fill="#FFFFFF" opacity="0.85"/>
    <path d="M868 372 L1003 100 L1062.8 100 L882 372 Z"
      fill="#FFFFFF" opacity="0.35"/>
    <!-- distant skyline -->
    <g opacity="0.28" fill="#073B4C">
      <rect x="872" y="249.5" width="33.800000000000004" height="130.5" rx="3"/>
      <rect x="927.6" y="217.6" width="26" height="162.4" rx="3"/>
      <rect x="1021.2" y="269.8" width="41.6" height="110.2" rx="3"/>
    </g>
    <path d="M860 380 L1120 148 L1354 786 L808 786 Z"
             fill="url(#ba--beam)" opacity="0.5"/>
  </g>
    
  <g>
    <path d="M150 869 L240 491 L960 491 L1050 869 Z"
      fill="#F2EBE0"/>
    <path d="M204 816.0799999999999 L285 543.9200000000001 L915 543.9200000000001 L996 816.0799999999999 Z"
      fill="none" stroke="#009FA3" stroke-width="3" opacity="0.55"/>
    <g fill="#009FA3" opacity="0.35">
      <ellipse cx="600" cy="680" rx="153" ry="90.72"/>
      <ellipse cx="600" cy="680" rx="81" ry="49.14" fill="#F2EBE0"/>
      <ellipse cx="348" cy="680" rx="45" ry="34.019999999999996"/>
      <ellipse cx="852" cy="680" rx="45" ry="34.019999999999996"/>
    </g>
    
    
  </g>
  <g>
    <ellipse cx="550" cy="636.4000000000001" rx="322.40000000000003" ry="51.584" fill="url(#ba--shadow)"/>
    <!-- back -->
    <rect x="240" y="300" width="620" height="199.88800000000003" rx="70.92800000000001" fill="url(#ba--sofa)"/>
    <!-- arms -->
    <rect x="212.1" y="390.27200000000005" width="93" height="193.44000000000003" rx="64.48" fill="url(#ba--sofa)"/>
    <rect x="794.9" y="390.27200000000005" width="93" height="193.44000000000003" rx="64.48" fill="url(#ba--sofa)"/>
    <!-- seat cushions -->
    <g>
      <rect x="295.8" y="461.20000000000005" width="167.4" height="109.61600000000001" rx="38.688" fill="url(#ba--sofa)"/>
      <rect x="469.4" y="461.20000000000005" width="167.4" height="109.61600000000001" rx="38.688" fill="url(#ba--sofa)"/>
      <rect x="643" y="461.20000000000005" width="167.4" height="109.61600000000001" rx="38.688" fill="url(#ba--sofa)"/>
    </g>
    <!-- back seams -->
    <g stroke="#C9B9A5" stroke-width="2" opacity="0.55" fill="none">
      <path d="M447.70000000000005 325.79200000000003 V461.20000000000005"/>
      <path d="M652.3 325.79200000000003 V461.20000000000005"/>
    </g>
    <!-- accent cushions -->
    <g transform="rotate(-8 351.6 409.616)">
      <rect x="302" y="351.584" width="105.4" height="105.4" rx="18.599999999999998"
        fill="#009FA3" opacity="0.92"/>
    </g>
    <g transform="rotate(9 748.4 409.616)">
      <rect x="692.5999999999999" y="351.584" width="105.4" height="105.4" rx="18.599999999999998"
        fill="#F5C542" opacity="0.85"/>
    </g>
    
    <!-- legs -->
    <rect x="277.2" y="577.264" width="21.700000000000003" height="58.032000000000004" rx="3" fill="#8A6739"/>
    <rect x="798" y="577.264" width="21.700000000000003" height="58.032000000000004" rx="3" fill="#8A6739"/>
    
    <path d="M288.01 297.95 Q288.01 313.3 303.37 313.3 Q288.01 313.3 288.01 328.66 Q288.01 313.3 272.65 313.3 Q288.01 313.3 288.01 297.95 Z"
      fill="#F5C542" opacity="0.85"/><path d="M781.54 328.07 Q781.54 336.37 789.84 336.37 Q781.54 336.37 781.54 344.67 Q781.54 336.37 773.24 336.37 Q781.54 336.37 781.54 328.07 Z"
      fill="#F5C542" opacity="0.8"/><path d="M675.35 404.31 Q675.35 413.19 684.23 413.19 Q675.35 413.19 675.35 422.08 Q675.35 413.19 666.47 413.19 Q675.35 413.19 675.35 404.31 Z"
      fill="#F5C542" opacity="0.7"/><path d="M337.36 318.74 Q337.36 328.5 347.12 328.5 Q337.36 328.5 337.36 338.26 Q337.36 328.5 327.6 328.5 Q337.36 328.5 337.36 318.74 Z"
      fill="#F5C542" opacity="0.86"/><path d="M310.5 392.22 Q310.5 401.16 319.44 401.16 Q310.5 401.16 310.5 410.11 Q310.5 401.16 301.56 401.16 Q310.5 401.16 310.5 392.22 Z"
      fill="#F5C542" opacity="0.59"/>
  </g>
    
  <g>
    <ellipse cx="1110" cy="581" rx="30.6" ry="8.1" fill="url(#ba--shadow)"/>
    <ellipse cx="1110" cy="488.6" rx="13.5" ry="41.4"
      fill="#1F6B4F" opacity="0.92"
      transform="rotate(-80 1110 528.2)"/><ellipse cx="1110" cy="488.6" rx="13.5" ry="41.4"
      fill="#2F8F6B" opacity="0.92"
      transform="rotate(-54 1110 528.2)"/><ellipse cx="1110" cy="488.6" rx="13.5" ry="41.4"
      fill="#1F6B4F" opacity="0.92"
      transform="rotate(-28 1110 528.2)"/><ellipse cx="1110" cy="488.6" rx="13.5" ry="41.4"
      fill="#2F8F6B" opacity="0.92"
      transform="rotate(-2 1110 528.2)"/><ellipse cx="1110" cy="488.6" rx="13.5" ry="41.4"
      fill="#1F6B4F" opacity="0.92"
      transform="rotate(24 1110 528.2)"/><ellipse cx="1110" cy="488.6" rx="13.5" ry="41.4"
      fill="#2F8F6B" opacity="0.92"
      transform="rotate(50 1110 528.2)"/><ellipse cx="1110" cy="488.6" rx="13.5" ry="41.4"
      fill="#1F6B4F" opacity="0.92"
      transform="rotate(76 1110 528.2)"/>
    <path d="M1086.6 533.6 h 46.800000000000004 l -6.3 41.4 h -34.2 Z" fill="#EBE3D8"/>
    <path d="M1086.6 533.6 h 46.800000000000004 l -2.7 10.8 h -41.4 Z" fill="#C6B7A6" opacity="0.6"/>
  </g>
    <path d="M266.46 246.32 Q266.46 261.67 281.82 261.67 Q266.46 261.67 266.46 277.03 Q266.46 261.67 251.11 261.67 Q266.46 261.67 266.46 246.32 Z"
      fill="#F5C542" opacity="0.85"/><path d="M744.08 275.69 Q744.08 283.99 752.38 283.99 Q744.08 283.99 744.08 292.29 Q744.08 283.99 735.78 283.99 Q744.08 283.99 744.08 275.69 Z"
      fill="#F5C542" opacity="0.8"/><path d="M641.31 349.46 Q641.31 358.34 650.19 358.34 Q641.31 358.34 641.31 367.22 Q641.31 358.34 632.42 358.34 Q641.31 358.34 641.31 349.46 Z"
      fill="#F5C542" opacity="0.7"/><path d="M314.22 266.62 Q314.22 276.38 323.98 276.38 Q314.22 276.38 314.22 286.14 Q314.22 276.38 304.46 276.38 Q314.22 276.38 314.22 266.62 Z"
      fill="#F5C542" opacity="0.86"/><path d="M288.22 337.76 Q288.22 346.7 297.16 346.7 Q288.22 346.7 288.22 355.64 Q288.22 346.7 279.28 346.7 Q288.22 346.7 288.22 337.76 Z"
      fill="#F5C542" opacity="0.59"/><path d="M786.28 148.57 Q786.28 156.24 793.95 156.24 Q786.28 156.24 786.28 163.91 Q786.28 156.24 778.61 156.24 Q786.28 156.24 786.28 148.57 Z"
      fill="#F5C542" opacity="0.87"/><path d="M444.12 391.82 Q444.12 404.88 457.18 404.88 Q444.12 404.88 444.12 417.93 Q444.12 404.88 431.07 404.88 Q444.12 404.88 444.12 391.82 Z"
      fill="#F5C542" opacity="0.88"/><path d="M224.67 383.34 Q224.67 399.33 240.66 399.33 Q224.67 399.33 224.67 415.32 Q224.67 399.33 208.68 399.33 Q224.67 399.33 224.67 383.34 Z"
      fill="#F5C542" opacity="0.5"/></svg>
