<svg xmlns="http://www.w3.org/2000/svg" viewBox="0 0 1200 800" width="1200" height="800" role="img">
  <defs>
    <linearGradient id="ba--wall" x1="0" y1="0" x2="0.3" y2="1">
      <stop offset="0" stop-color="#F6F1E9"/>
      <stop offset="1" stop-color="#EBE3D8"/>
    </linearGradient>
    <linearGradient id="ba--floor" x1="0" y1="0" x2="0" y2="1">
      <stop offset="0" stop-color="#DCCFC0"/>
      <stop offset="1" stop-color="#C6B7A6"/>
    </linearGradient>
    <linearGradient id="ba--sofa" x1="0" y1="0" x2="0.2" y2="1">
      <stop offset="0" stop-color="#FFFFFF" stop-opacity="0.9"/>
      <stop offset="0.45" stop-color="#EFE6DA"/>
      <stop offset="1" stop-color="#DDD0BF"/>
    </linearGradient>
    <linearGradient id="ba--teal" x1="0" y1="0" x2="1" y2="1">
      <stop offset="0" stop-color="#009FA3"/>
      <stop offset="1" stop-color="#007377"/>
    </linearGradient>
    <linearGradient id="ba--glass" x1="0" y1="0" x2="0.6" y2="1">
      <stop offset="0" stop-color="#DFF3F7"/>
      <stop offset="0.55" stop-color="#BFE4EC"/>
      <stop offset="1" stop-color="#9FD2DE"/>
    </linearGradient>
    <linearGradient id="ba--beam" x1="0" y1="0" x2="0.35" y2="1">
      <stop offset="0" stop-color="#FFF1CE" stop-opacity="0.85"/>
      <stop offset="1" stop-color="#FFF1CE" stop-opacity="0"/>
    </linearGradient>
    <radialGradient id="ba--glow" cx="0.5" cy="0.5" r="0.5">
      <stop offset="0" stop-color="#FFF1CE" stop-opacity="0.75"/>
      <stop offset="1" stop-color="#FFF1CE" stop-opacity="0"/>
    </radialGradient>
    <radialGradient id="ba--shadow" cx="0.5" cy="0.5" r="0.5">
      <stop offset="0" stop-color="#073B4C" stop-opacity="0.28"/>
      <stop offset="1" stop-color="#073B4C" stop-opacity="0"/>
    </radialGradient>
    <filter id="ba--soft" x="-25%" y="-25%" width="150%" height="150%">
      <feGaussianBlur stdDeviation="14"/>
    </filter>
    <filter id="ba--grime" x="-10%" y="-10%" width="120%" height="120%">
      <feTurbulence type="fractalNoise" baseFrequency="0.9" numOctaves="4" seed="7" result="noise"/>
      <feColorMatrix in="noise" type="matrix" result="mono"
        values="0 0 0 0 0.32  0 0 0 0 0.27  0 0 0 0 0.18  0 0 0 0.55 0"/>
      <feComposite in="mono" in2="SourceGraphic" operator="in"/>
    </filter>
  </defs>
  
  <rect width="1200" height="800" fill="url(#ba--wall)"/>
  <rect y="624" width="1200" height="176" fill="url(#ba--floor)"/>
  <rect y="610" width="1200" height="14" fill="#FFFFFF" opacity="0.75"/>
  <rect y="610" width="1200" height="3" fill="#073B4C" opacity="0.06"/>
  <ellipse cx="600" cy="624" rx="720" ry="128" fill="url(#ba--glow)" opacity="0.5"/>
  <g>
    <rect x="240" y="160" width="720" height="448.00000000000006" rx="18" fill="#FFFFFF" opacity="0.95"/>
    <rect x="276" y="192" width="648" height="384" rx="12" fill="#E7EFF1"/>
    <path d="M276 352 h 648 v 224.00000000000003 a 12 12 0 0 1 -12 12 h 624 a 12 12 0 0 1 -12 -12 Z"
      fill="#7E8C5A"/>
    <path d="M276 352 q 162 -24 324 0 t 324 0 v 40 h -648 Z"
      fill="#5E6B3E" opacity="0.55"/>
    <ellipse cx="356.14" cy="554.84" rx="14.31" ry="7.92" fill="#4A4326" opacity="0.43"/><ellipse cx="649.62" cy="567.41" rx="15.77" ry="6.83" fill="#4A4326" opacity="0.33"/><ellipse cx="634.25" cy="525.89" rx="32.73" ry="13.04" fill="#4A4326" opacity="0.31"/><ellipse cx="565.6" cy="567.85" rx="23.49" ry="6.8" fill="#4A4326" opacity="0.57"/><ellipse cx="475.2" cy="559.07" rx="27.08" ry="8.14" fill="#4A4326" opacity="0.52"/><ellipse cx="322.49" cy="505.34" rx="15.3" ry="5.61" fill="#4A4326" opacity="0.52"/><ellipse cx="802.64" cy="521.51" rx="29.92" ry="12.96" fill="#4A4326" opacity="0.52"/><ellipse cx="681.18" cy="528.51" rx="30.6" ry="7.02" fill="#4A4326" opacity="0.39"/><ellipse cx="711.92" cy="532.42" rx="19.63" ry="11.63" fill="#4A4326" opacity="0.4"/><ellipse cx="354.78" cy="541.41" rx="30.12" ry="12.26" fill="#4A4326" opacity="0.46"/>
    <rect x="504" y="112.00000000000001" width="192" height="56.00000000000001" rx="6" fill="#EBE3D8"/>
    <rect x="540" y="80" width="120" height="40" rx="4" fill="#C6B7A6"/>
    <path d="M960 272 h 120" stroke="#073B4C" stroke-width="26.4" stroke-linecap="round" opacity="0.7"/>
    <path d="M240 496 h -120" stroke="#073B4C" stroke-width="26.4" stroke-linecap="round" opacity="0.7"/>
  </g>
  </svg>
