<svg xmlns="http://www.w3.org/2000/svg" viewBox="0 0 720 480" width="720" height="480" role="img">
  <defs>
    <linearGradient id="blo-wall" x1="0" y1="0" x2="0.3" y2="1">
      <stop offset="0" stop-color="#F6F1E9"/>
      <stop offset="1" stop-color="#EBE3D8"/>
    </linearGradient>
    <linearGradient id="blo-floor" x1="0" y1="0" x2="0" y2="1">
      <stop offset="0" stop-color="#DCCFC0"/>
      <stop offset="1" stop-color="#C6B7A6"/>
    </linearGradient>
    <linearGradient id="blo-sofa" x1="0" y1="0" x2="0.2" y2="1">
      <stop offset="0" stop-color="#FFFFFF" stop-opacity="0.9"/>
      <stop offset="0.45" stop-color="#EFE6DA"/>
      <stop offset="1" stop-color="#DDD0BF"/>
    </linearGradient>
    <linearGradient id="blo-teal" x1="0" y1="0" x2="1" y2="1">
      <stop offset="0" stop-color="#009FA3"/>
      <stop offset="1" stop-color="#007377"/>
    </linearGradient>
    <linearGradient id="blo-glass" x1="0" y1="0" x2="0.6" y2="1">
      <stop offset="0" stop-color="#DFF3F7"/>
      <stop offset="0.55" stop-color="#BFE4EC"/>
      <stop offset="1" stop-color="#9FD2DE"/>
    </linearGradient>
    <linearGradient id="blo-beam" x1="0" y1="0" x2="0.35" y2="1">
      <stop offset="0" stop-color="#FFF1CE" stop-opacity="0.85"/>
      <stop offset="1" stop-color="#FFF1CE" stop-opacity="0"/>
    </linearGradient>
    <radialGradient id="blo-glow" cx="0.5" cy="0.5" r="0.5">
      <stop offset="0" stop-color="#FFF1CE" stop-opacity="0.75"/>
      <stop offset="1" stop-color="#FFF1CE" stop-opacity="0"/>
    </radialGradient>
    <radialGradient id="blo-shadow" cx="0.5" cy="0.5" r="0.5">
      <stop offset="0" stop-color="#073B4C" stop-opacity="0.28"/>
      <stop offset="1" stop-color="#073B4C" stop-opacity="0"/>
    </radialGradient>
    <filter id="blo-soft" x="-25%" y="-25%" width="150%" height="150%">
      <feGaussianBlur stdDeviation="14"/>
    </filter>
    <filter id="blo-grime" x="-10%" y="-10%" width="120%" height="120%">
      <feTurbulence type="fractalNoise" baseFrequency="0.9" numOctaves="4" seed="7" result="noise"/>
      <feColorMatrix in="noise" type="matrix" result="mono"
        values="0 0 0 0 0.32  0 0 0 0 0.27  0 0 0 0 0.18  0 0 0 0.55 0"/>
      <feComposite in="mono" in2="SourceGraphic" operator="in"/>
    </filter>
  </defs>
  <rect width="720" height="480" fill="url(#blo-wall)"/>
  <rect y="360" width="720" height="120" fill="url(#blo-floor)"/>
  <rect y="346" width="720" height="14" fill="#FFFFFF" opacity="0.75"/>
  <rect y="346" width="720" height="3" fill="#073B4C" opacity="0.06"/>
  <ellipse cx="360" cy="360" rx="432" ry="76.8" fill="url(#blo-glow)" opacity="0.5"/>
  <g>
    <rect x="490" y="40" width="200" height="200" rx="14" fill="#FFFFFF" opacity="0.9"/>
    <rect x="500" y="50" width="180" height="180" rx="8" fill="url(#blo-glass)"/>
    <rect x="587" y="50" width="6" height="180" fill="#FFFFFF" opacity="0.85"/>
    <rect x="500" y="125.6" width="180" height="6" fill="#FFFFFF" opacity="0.85"/>
    <path d="M508 222 L599 60 L640.4 60 L522 222 Z"
      fill="#FFFFFF" opacity="0.35"/>
    <!-- distant skyline -->
    <g opacity="0.28" fill="#073B4C">
      <rect x="512" y="149" width="23.400000000000002" height="81" rx="3"/>
      <rect x="546.8" y="129.2" width="18" height="100.80000000000001" rx="3"/>
      <rect x="611.6" y="161.6" width="28.8" height="68.4" rx="3"/>
    </g>
    <path d="M500 230 L680 86 L842 482 L464 482 Z"
             fill="url(#blo-beam)" opacity="0.5"/>
  </g>
      
  <g>
    <ellipse cx="320" cy="424.8" rx="210" ry="31.416000000000004" fill="url(#blo-shadow)"/>
    <rect x="97.4" y="171.464" width="25.2" height="242.76000000000002" rx="6" fill="#8A6739"/>
    <rect x="97.4" y="171.464" width="445.20000000000005" height="88.536" rx="14" fill="#B08757" opacity="0.55"/>
    <rect x="110" y="260" width="420" height="142.8" rx="31.416000000000004" fill="#FBF8F3"/>
    <g stroke="#DED6C7" stroke-width="2" opacity="0.8" fill="none">
      <path d="M122.6 362.81600000000003 h 394.79999999999995"/>
    </g>
    <g fill="#D9D0BE" opacity="0.7">
      <circle cx="160.4" cy="311.41" r="4"/><circle cx="224.24" cy="311.41" r="4"/><circle cx="288.08" cy="311.41" r="4"/><circle cx="351.92" cy="311.41" r="4"/><circle cx="415.76" cy="311.41" r="4"/><circle cx="479.6" cy="311.41" r="4"/>
    </g>
    
    
    <rect x="143.6" y="228.584" width="126" height="48.55200000000001" rx="22.848000000000003" fill="#FFFFFF" opacity="0.95"/>
    <rect x="370.4" y="228.584" width="126" height="48.55200000000001" rx="22.848000000000003" fill="#FFFFFF" opacity="0.95"/>
  </g><path d="M176.33 214.26 Q176.33 229.61 191.68 229.61 Q176.33 229.61 176.33 244.97 Q176.33 229.61 160.97 229.61 Q176.33 229.61 176.33 214.26 Z"
      fill="#F5C542" opacity="0.85"/><path d="M446.98 233.96 Q446.98 242.26 455.28 242.26 Q446.98 242.26 446.98 250.56 Q446.98 242.26 438.68 242.26 Q446.98 242.26 446.98 233.96 Z"
      fill="#F5C542" opacity="0.8"/><path d="M388.74 275.51 Q388.74 284.39 397.62 284.39 Q388.74 284.39 388.74 293.28 Q388.74 284.39 379.86 284.39 Q388.74 284.39 388.74 275.51 Z"
      fill="#F5C542" opacity="0.7"/><path d="M203.39 228.19 Q203.39 237.95 213.15 237.95 Q203.39 237.95 203.39 247.71 Q203.39 237.95 193.63 237.95 Q203.39 237.95 203.39 228.19 Z"
      fill="#F5C542" opacity="0.86"/><path d="M188.66 268.86 Q188.66 277.8 197.6 277.8 Q188.66 277.8 188.66 286.74 Q188.66 277.8 179.72 277.8 Q188.66 277.8 188.66 268.86 Z"
      fill="#F5C542" opacity="0.59"/></svg>
