<svg xmlns="http://www.w3.org/2000/svg" viewBox="0 0 900 560" width="900" height="560" role="img">
  <defs>
    <linearGradient id="pac-wall" x1="0" y1="0" x2="0.3" y2="1">
      <stop offset="0" stop-color="#F6F1E9"/>
      <stop offset="1" stop-color="#EBE3D8"/>
    </linearGradient>
    <linearGradient id="pac-floor" x1="0" y1="0" x2="0" y2="1">
      <stop offset="0" stop-color="#DCCFC0"/>
      <stop offset="1" stop-color="#C6B7A6"/>
    </linearGradient>
    <linearGradient id="pac-sofa" x1="0" y1="0" x2="0.2" y2="1">
      <stop offset="0" stop-color="#FFFFFF" stop-opacity="0.9"/>
      <stop offset="0.45" stop-color="#EFE6DA"/>
      <stop offset="1" stop-color="#DDD0BF"/>
    </linearGradient>
    <linearGradient id="pac-teal" x1="0" y1="0" x2="1" y2="1">
      <stop offset="0" stop-color="#009FA3"/>
      <stop offset="1" stop-color="#007377"/>
    </linearGradient>
    <linearGradient id="pac-glass" x1="0" y1="0" x2="0.6" y2="1">
      <stop offset="0" stop-color="#DFF3F7"/>
      <stop offset="0.55" stop-color="#BFE4EC"/>
      <stop offset="1" stop-color="#9FD2DE"/>
    </linearGradient>
    <linearGradient id="pac-beam" x1="0" y1="0" x2="0.35" y2="1">
      <stop offset="0" stop-color="#FFF1CE" stop-opacity="0.85"/>
      <stop offset="1" stop-color="#FFF1CE" stop-opacity="0"/>
    </linearGradient>
    <radialGradient id="pac-glow" cx="0.5" cy="0.5" r="0.5">
      <stop offset="0" stop-color="#FFF1CE" stop-opacity="0.75"/>
      <stop offset="1" stop-color="#FFF1CE" stop-opacity="0"/>
    </radialGradient>
    <radialGradient id="pac-shadow" cx="0.5" cy="0.5" r="0.5">
      <stop offset="0" stop-color="#073B4C" stop-opacity="0.28"/>
      <stop offset="1" stop-color="#073B4C" stop-opacity="0"/>
    </radialGradient>
    <filter id="pac-soft" x="-25%" y="-25%" width="150%" height="150%">
      <feGaussianBlur stdDeviation="14"/>
    </filter>
    <filter id="pac-grime" x="-10%" y="-10%" width="120%" height="120%">
      <feTurbulence type="fractalNoise" baseFrequency="0.9" numOctaves="4" seed="7" result="noise"/>
      <feColorMatrix in="noise" type="matrix" result="mono"
        values="0 0 0 0 0.32  0 0 0 0 0.27  0 0 0 0 0.18  0 0 0 0.55 0"/>
      <feComposite in="mono" in2="SourceGraphic" operator="in"/>
    </filter>
  </defs>
  <rect width="900" height="560" fill="url(#pac-wall)"/>
  <rect y="380" width="900" height="180" fill="url(#pac-floor)"/>
  <rect y="366" width="900" height="14" fill="#FFFFFF" opacity="0.75"/>
  <rect y="366" width="900" height="3" fill="#073B4C" opacity="0.06"/>
  <ellipse cx="450" cy="380" rx="540" ry="89.60000000000001" fill="url(#pac-glow)" opacity="0.5"/>
  <g>
    <rect x="60" y="40" width="210" height="220" rx="14" fill="#FFFFFF" opacity="0.9"/>
    <rect x="70" y="50" width="190" height="200" rx="8" fill="url(#pac-glass)"/>
    <rect x="162" y="50" width="6" height="200" fill="#FFFFFF" opacity="0.85"/>
    <rect x="70" y="134" width="190" height="6" fill="#FFFFFF" opacity="0.85"/>
    <path d="M78 242 L174.5 60 L218.20000000000002 60 L92 242 Z"
      fill="#FFFFFF" opacity="0.35"/>
    <!-- distant skyline -->
    <g opacity="0.28" fill="#073B4C">
      <rect x="82" y="160" width="24.7" height="90" rx="3"/>
      <rect x="119.4" y="138" width="19" height="112.00000000000001" rx="3"/>
      <rect x="187.8" y="174" width="30.400000000000002" height="76" rx="3"/>
    </g>
    <path d="M70 250 L260 90 L431 530 L32 530 Z"
             fill="url(#pac-beam)" opacity="0.5"/>
  </g>
      
  <g>
    <ellipse cx="650" cy="399.8" rx="210" ry="31.416000000000004" fill="url(#pac-shadow)"/>
    <rect x="427.4" y="146.464" width="25.2" height="242.76000000000002" rx="6" fill="#8A6739"/>
    <rect x="427.4" y="146.464" width="445.20000000000005" height="88.536" rx="14" fill="#B08757" opacity="0.55"/>
    <rect x="440" y="235" width="420" height="142.8" rx="31.416000000000004" fill="#FBF8F3"/>
    <g stroke="#DED6C7" stroke-width="2" opacity="0.8" fill="none">
      <path d="M452.6 337.81600000000003 h 394.79999999999995"/>
    </g>
    <g fill="#D9D0BE" opacity="0.7">
      <circle cx="490.4" cy="286.41" r="4"/><circle cx="554.24" cy="286.41" r="4"/><circle cx="618.08" cy="286.41" r="4"/><circle cx="681.92" cy="286.41" r="4"/><circle cx="745.76" cy="286.41" r="4"/><circle cx="809.6" cy="286.41" r="4"/>
    </g>
    
    
    <rect x="473.6" y="203.584" width="126" height="48.55200000000001" rx="22.848000000000003" fill="#FFFFFF" opacity="0.95"/>
    <rect x="700.4" y="203.584" width="126" height="48.55200000000001" rx="22.848000000000003" fill="#FFFFFF" opacity="0.95"/>
  </g>
  <g>
    <path d="M60 557.4 L104 372.6 L456 372.6 L500 557.4 Z"
      fill="#F2EBE0"/>
    <path d="M86.4 531.528 L126 398.472 L434 398.472 L473.6 531.528 Z"
      fill="none" stroke="#009FA3" stroke-width="3" opacity="0.55"/>
    <g fill="#009FA3" opacity="0.35">
      <ellipse cx="280" cy="465" rx="74.80000000000001" ry="44.352"/>
      <ellipse cx="280" cy="465" rx="39.6" ry="24.023999999999997" fill="#F2EBE0"/>
      <ellipse cx="156.79999999999998" cy="465" rx="22" ry="16.631999999999998"/>
      <ellipse cx="403.20000000000005" cy="465" rx="22" ry="16.631999999999998"/>
    </g>
    
    
  </g>
      
  <g>
    <ellipse cx="200" cy="434" rx="47.599999999999994" ry="12.6" fill="url(#pac-shadow)"/>
    <path d="M163.6 430 l 8.399999999999999 -134.39999999999998 h 56 l 8.399999999999999 134.39999999999998 Z" fill="#073B4C"/>
    <path d="M158 295.6 q 42 -36.4 84 0 l -8.399999999999999 72.8 h -67.19999999999999 Z" fill="url(#pac-teal)"/>
    <circle cx="200" cy="259.20000000000005" r="26.599999999999998" fill="#E8C9A8"/>
    <path d="M172 250.8 q 28 -28 56 0 z" fill="#073B4C"/>
    <rect x="236.4" y="295.6" width="15.399999999999999" height="75.6" rx="7" fill="url(#pac-teal)"
      transform="rotate(14 236.4 295.6)"/>
    <rect x="180.4" y="326.4" width="39.199999999999996" height="11.2" rx="5.6" fill="#F5C542" opacity="0.9"/>
  </g><path d="M450.97 177.43 Q450.97 192.78 466.33 192.78 Q450.97 192.78 450.97 208.14 Q450.97 192.78 435.62 192.78 Q450.97 192.78 450.97 177.43 Z"
      fill="#F5C542" opacity="0.85"/><path d="M769.38 199.36 Q769.38 207.66 777.68 207.66 Q769.38 207.66 769.38 215.96 Q769.38 207.66 761.08 207.66 Q769.38 207.66 769.38 199.36 Z"
      fill="#F5C542" opacity="0.8"/><path d="M700.87 248.34 Q700.87 257.23 709.75 257.23 Q700.87 257.23 700.87 266.11 Q700.87 257.23 691.99 257.23 Q700.87 257.23 700.87 248.34 Z"
      fill="#F5C542" opacity="0.7"/><path d="M482.81 192.83 Q482.81 202.59 492.57 202.59 Q482.81 202.59 482.81 212.35 Q482.81 202.59 473.06 202.59 Q482.81 202.59 482.81 192.83 Z"
      fill="#F5C542" opacity="0.86"/><path d="M465.48 240.53 Q465.48 249.47 474.42 249.47 Q465.48 249.47 465.48 258.41 Q465.48 249.47 456.54 249.47 Q465.48 249.47 465.48 240.53 Z"
      fill="#F5C542" opacity="0.59"/><path d="M797.52 114.82 Q797.52 122.49 805.19 122.49 Q797.52 122.49 797.52 130.16 Q797.52 122.49 789.85 122.49 Q797.52 122.49 797.52 114.82 Z"
      fill="#F5C542" opacity="0.87"/></svg>
